<svg width="30" height="40" viewBox="0 0 40 41" fill="none" xmlns="http://www.w3.org/2000/svg">
<mask id="mask0_4918_2770" style="mask-type:luminance" maskUnits="userSpaceOnUse" x="0" y="0" width="40" height="40">
<path d="M20 40.5C8.95431 40.5 0 31.5457 0 20.5C0 9.4543 8.95431 0.5 20 0.5C31.0457 0.5 40 9.4543 40 20.5C40 31.5457 31.0457 40.5 20 40.5Z" fill="white"/>
</mask>
<g mask="url(#mask0_4918_2770)">
<path d="M23.1882 6.14252L23.9865 6.52958C27.3007 8.13224 28.9276 11.9363 27.7845 15.438L26.8048 18.4497H26.1577L19.989 18.4135L13.8202 18.4497H13.1731L12.1934 15.4319C11.0564 11.9302 12.6772 8.12619 15.9914 6.52353L16.7776 6.14252C18.7915 5.16278 21.1562 5.16278 23.1882 6.14252Z" fill="#35251E"/>
<path d="M27.0508 20.0101C27.0508 20.3185 26.7968 20.5725 26.4883 20.5725C26.3674 20.5725 26.2525 20.5302 26.1618 20.4637V19.5565C26.2525 19.49 26.3674 19.4476 26.4883 19.4476C26.7968 19.4476 27.0508 19.6956 27.0508 20.0101Z" fill="#333333"/>
<path d="M12.9608 20.0101C12.9608 19.7016 13.2148 19.4476 13.5232 19.4476C13.6442 19.4476 13.753 19.4839 13.8438 19.5504V20.4697C13.753 20.5362 13.6442 20.5725 13.5232 20.5725C13.2148 20.5725 12.9608 20.3185 12.9608 20.0101Z" fill="#333333"/>
<path d="M13.5232 19.4477C13.2148 19.4477 12.9608 19.7017 12.9608 20.0101C12.9608 20.3186 13.2148 20.5726 13.5232 20.5726C13.6442 20.5726 13.753 20.5363 13.8438 20.4697V21.5704C13.7409 21.5946 13.6321 21.6007 13.5232 21.6007C12.6463 21.6007 11.9327 20.887 11.9327 20.0101C11.9327 19.1332 12.6463 18.4196 13.5232 18.4196C13.6321 18.4196 13.7409 18.4317 13.8438 18.4498V19.5505C13.753 19.484 13.6442 19.4477 13.5232 19.4477Z" fill="#CC8666"/>
<path d="M20.0035 29.7652C18.6367 29.7652 17.3788 29.3176 16.3567 28.5677C14.8327 27.4489 13.8469 25.6406 13.8469 23.6085V21.5704V20.4697V19.5505V18.4498V14.7062C13.8469 12.8012 15.3951 11.2529 17.3002 11.2529H22.7069C24.6119 11.2529 26.1602 12.8012 26.1602 14.7062V18.4498V19.5565V20.4637V21.5644V23.6085C26.1602 25.6466 25.1744 27.4489 23.6503 28.5677C22.6283 29.3237 21.3643 29.7652 20.0035 29.7652ZM16.641 18.7098C16.641 18.9276 16.8163 19.1029 17.0341 19.1029C17.2518 19.1029 17.4272 18.9276 17.4272 18.7098V17.8873C17.4272 17.6696 17.2518 17.4942 17.0341 17.4942C16.8163 17.4942 16.641 17.6696 16.641 17.8873V18.7098ZM18.0622 13.4906H16.012C15.6068 13.4906 15.2802 13.8172 15.2802 14.2224C15.2802 14.6276 15.6068 14.9542 16.012 14.9542H18.0622C18.4674 14.9542 18.794 14.6276 18.794 14.2224C18.794 13.8172 18.4613 13.4906 18.0622 13.4906ZM18.9512 21.6974C18.7456 21.6974 18.5762 21.8668 18.5762 22.0724C18.5762 22.278 18.7456 22.4474 18.9512 22.4474C19.1568 22.4474 19.3262 22.278 19.3262 22.0724C19.3262 21.8668 19.1568 21.6974 18.9512 21.6974ZM20.6748 22.0724C20.6748 22.278 20.8442 22.4474 21.0498 22.4474C21.2554 22.4474 21.4248 22.278 21.4248 22.0724C21.4248 21.8668 21.2554 21.6974 21.0498 21.6974C20.8442 21.6974 20.6748 21.8607 20.6748 22.0724ZM23.9769 14.9542C24.3821 14.9542 24.7087 14.6276 24.7087 14.2224C24.7087 13.8172 24.3821 13.4906 23.9769 13.4906H21.9267C21.5215 13.4906 21.1949 13.8172 21.1949 14.2224C21.1949 14.6276 21.5215 14.9542 21.9267 14.9542H23.9769ZM23.3419 17.8873C23.3419 17.6696 23.1665 17.4942 22.9488 17.4942C22.7311 17.4942 22.5557 17.6696 22.5557 17.8873V18.7098C22.5557 18.9276 22.7311 19.1029 22.9488 19.1029C23.1665 19.1029 23.3419 18.9276 23.3419 18.7098V17.8873ZM23.2875 23.3606V23.2759H22.7129H17.2518H16.7196V23.3606C16.7196 23.8807 16.8405 24.3766 17.0583 24.8181C17.5965 25.9006 18.7153 26.6506 20.0035 26.6506C20.5115 26.6506 20.9954 26.5357 21.4248 26.33C22.5254 25.7918 23.2875 24.6669 23.2875 23.3606Z" fill="#CC8666"/>
<path d="M20.1058 24.8181H17.0577C16.84 24.3766 16.719 23.8867 16.719 23.3605V23.2759H17.2512V23.8746C17.2512 24.1528 17.475 24.3766 17.7532 24.3766H22.2165C22.4947 24.3766 22.7184 24.1528 22.7184 23.8746V23.2759H23.293V23.3605C23.293 24.6669 22.531 25.7918 21.4303 26.324V26.1365C21.4242 25.4047 20.8315 24.8181 20.1058 24.8181Z" fill="#840636"/>
<path d="M19.9895 31.3255C18.6288 31.3255 17.3708 30.884 16.3548 30.1341V28.5677C17.3769 29.3177 18.6348 29.7652 20.0016 29.7652C21.3684 29.7652 22.6264 29.3177 23.6484 28.5677V30.122C22.6264 30.878 21.3563 31.3255 19.9895 31.3255Z" fill="#B2745B"/>
<path d="M20.0046 26.6445C18.7103 26.6445 17.5975 25.9006 17.0593 24.812H20.1074C20.8331 24.812 21.4258 25.4047 21.4258 26.1304V26.3179C20.9964 26.5296 20.5126 26.6445 20.0046 26.6445Z" fill="#F22661"/>
<path d="M26.482 34.4521H34.5195V41.7095H5.4902V34.4521H13.5277H26.482Z" fill="#AF89E5"/>
<path d="M26.4876 20.5726C26.796 20.5726 27.05 20.3186 27.05 20.0101C27.05 19.7017 26.796 19.4477 26.4876 19.4477C26.3666 19.4477 26.2517 19.49 26.161 19.5565V18.4558C26.2698 18.4316 26.3787 18.4196 26.4876 18.4196C27.3645 18.4196 28.0781 19.1332 28.0781 20.0101C28.0781 20.887 27.3645 21.6007 26.4876 21.6007C26.3726 21.6007 26.2638 21.5886 26.161 21.5644V20.4637C26.2517 20.5302 26.3666 20.5726 26.4876 20.5726Z" fill="#CC8666"/>
<path d="M15.0529 32.5531H16.3532H23.6529H24.9531V34.4521H15.0529V32.5531Z" fill="#DEC2FF"/>
<path d="M16.3548 30.1401C17.3769 30.8901 18.6288 31.3316 19.9895 31.3316C21.3563 31.3316 22.6264 30.884 23.6484 30.1281V32.5593H16.3548V30.1401Z" fill="#CC8666"/>
<path d="M22.211 24.3706H17.7477C17.4695 24.3706 17.2458 24.1468 17.2458 23.8686V23.2699H22.7069V23.8686C22.713 24.1468 22.4892 24.3706 22.211 24.3706Z" fill="white"/>
<path d="M21.4258 22.0723C21.4258 22.278 21.2564 22.4473 21.0508 22.4473C20.8452 22.4473 20.6759 22.278 20.6759 22.0723C20.6759 21.8667 20.8452 21.6974 21.0508 21.6974C21.2564 21.6974 21.4258 21.8607 21.4258 22.0723Z" fill="#35251E"/>
<path d="M18.9532 22.4412C18.7475 22.4412 18.5782 22.2719 18.5782 22.0662C18.5782 21.8606 18.7475 21.6913 18.9532 21.6913C19.1588 21.6913 19.3281 21.8606 19.3281 22.0662C19.3281 22.2719 19.1588 22.4412 18.9532 22.4412Z" fill="#35251E"/>
<path d="M21.1933 14.2224C21.1933 13.8172 21.5199 13.4906 21.9251 13.4906H23.9753C24.3805 13.4906 24.707 13.8172 24.707 14.2224C24.707 14.6276 24.3805 14.9542 23.9753 14.9542H21.9251C21.5199 14.9542 21.1933 14.6215 21.1933 14.2224Z" fill="#35251E"/>
<path d="M18.0612 14.9542H16.011C15.6058 14.9542 15.2792 14.6276 15.2792 14.2224C15.2792 13.8172 15.6058 13.4906 16.011 13.4906H18.0612C18.4664 13.4906 18.793 13.8172 18.793 14.2224C18.793 14.6276 18.4603 14.9542 18.0612 14.9542Z" fill="#35251E"/>
<path d="M17.0327 17.5002C17.2504 17.5002 17.4258 17.6756 17.4258 17.8933V18.7098C17.4258 18.9275 17.2504 19.1029 17.0327 19.1029C16.815 19.1029 16.6396 18.9275 16.6396 18.7098V17.8873C16.6396 17.6756 16.815 17.5002 17.0327 17.5002Z" fill="#35251E"/>
<path d="M22.9506 19.1028C22.7329 19.1028 22.5575 18.9275 22.5575 18.7097V17.8872C22.5575 17.6695 22.7329 17.4941 22.9506 17.4941C23.1684 17.4941 23.3438 17.6695 23.3438 17.8872V18.7097C23.3438 18.9275 23.1684 19.1028 22.9506 19.1028Z" fill="#35251E"/>
</g>
</svg>
