<svg width="30" height="40" viewBox="0 0 40 41" fill="none" xmlns="http://www.w3.org/2000/svg">
<path d="M20 40.5C31.0457 40.5 40 31.5457 40 20.5C40 9.4543 31.0457 0.5 20 0.5C8.9543 0.5 0 9.4543 0 20.5C0 31.5457 8.9543 40.5 20 40.5Z" fill="#FFF1F0"/>
<mask id="mask0_4927_3050" style="mask-type:luminance" maskUnits="userSpaceOnUse" x="0" y="0" width="40" height="40">
<path d="M20 40.5C31.0457 40.5 40 31.5457 40 20.5C40 9.4543 31.0457 0.5 20 0.5C8.9543 0.5 0 9.4543 0 20.5C0 31.5457 8.9543 40.5 20 40.5Z" fill="white"/>
</mask>
<g mask="url(#mask0_4927_3050)">
<path d="M33.7261 30.9565C30.8413 26.0336 28.9 28.1987 28.9 28.1987C28.9 28.1987 34.8328 21.6792 29.4019 20.639C29.4019 20.639 31.3977 18.3832 29.7346 17.7724C28.8697 17.597 34.476 11.0473 27.2308 9.28735C27.2308 9.28735 26.5534 3.24562 19.9976 5.7373C13.4419 3.24562 12.7645 9.28735 12.7645 9.28735C5.04149 11.4162 10.7445 17.8147 10.2607 17.7724C8.59759 18.3832 10.5934 20.639 10.5934 20.639C5.1564 21.6792 11.0953 28.1987 11.0953 28.1987C11.0953 28.1987 9.15398 26.0336 6.26919 30.9565C3.3844 35.8794 8.79111 38.0687 8.79111 38.0687H19.9916H20.0037H31.2042C31.2042 38.0748 36.6109 35.8794 33.7261 30.9565Z" fill="#35251E"/>
<path d="M23.528 30.14C22.5059 30.89 21.254 31.3314 19.8933 31.3314C18.5265 31.3314 17.2564 30.8839 16.2344 30.1279V32.5591H23.528V30.14Z" fill="#E59576"/>
<path d="M24.8299 32.5531H23.5296H16.236H14.9297V34.4521H24.8299V32.5531Z" fill="#CC7A6A"/>
<path d="M13.5258 34.4521H5.48828V41.7095H34.5176V34.4521H26.4801H13.5258Z" fill="#BA503A"/>
<path d="M19.8832 29.7652C21.25 29.7652 22.5079 29.3176 23.53 28.5677C25.054 27.4489 26.0398 25.6406 26.0398 23.6085V22.2357V21.135V20.2157V19.115V14.7062C26.0398 12.8012 24.4916 11.2529 22.5866 11.2529H17.1798C15.2748 11.2529 13.7266 12.8012 13.7266 14.7062V19.115V20.2218V21.1289V22.2296V23.6085C13.7266 25.6466 14.7124 27.4489 16.2364 28.5677C17.2585 29.3237 18.5164 29.7652 19.8832 29.7652ZM23.2397 18.7098C23.2397 18.9276 23.0643 19.1029 22.8466 19.1029C22.6289 19.1029 22.4535 18.9276 22.4535 18.7098V17.8873C22.4535 17.6696 22.6289 17.4942 22.8466 17.4942C23.0643 17.4942 23.2397 17.6696 23.2397 17.8873V18.7098ZM21.8245 13.4906H24.6065V14.2224C24.6065 14.6276 24.2799 14.9542 23.8747 14.9542H21.8245C21.4193 14.9542 21.0928 14.6276 21.0928 14.2224C21.0928 13.8172 21.4193 13.4906 21.8245 13.4906ZM20.9295 21.6974C21.1351 21.6974 21.3044 21.8668 21.3044 22.0724C21.3044 22.278 21.1351 22.4474 20.9295 22.4474C20.7238 22.4474 20.5545 22.278 20.5545 22.0724C20.5545 21.8668 20.7238 21.6974 20.9295 21.6974ZM19.2058 22.0724C19.2058 22.278 19.0365 22.4474 18.8309 22.4474C18.6253 22.4474 18.4559 22.278 18.4559 22.0724C18.4559 21.8668 18.6253 21.6974 18.8309 21.6974C19.0365 21.6974 19.2058 21.8607 19.2058 22.0724ZM15.9038 14.9542C15.4986 14.9542 15.172 14.6276 15.172 14.2224V13.4906H17.954C18.3592 13.4906 18.6857 13.8172 18.6857 14.2224C18.6857 14.6276 18.3592 14.9542 17.954 14.9542H15.9038ZM17.325 18.7098C17.325 18.9276 17.1496 19.1029 16.9319 19.1029C16.7142 19.1029 16.5388 18.9276 16.5388 18.7098V17.8873C16.5388 17.6696 16.7142 17.4942 16.9319 17.4942C17.1496 17.4942 17.325 17.6696 17.325 17.8873V18.7098ZM17.5488 25.1628C17.5488 25.1447 17.5488 25.1205 17.5488 25.0963C17.5488 25.0298 17.5548 24.9693 17.5669 24.9028C17.6576 24.3161 18.1656 23.8686 18.7765 23.8686C19.4538 23.8686 20.0042 24.4189 20.0042 25.0963C20.0042 24.4189 20.5545 23.8686 21.2318 23.8686C21.8427 23.8686 22.3507 24.3161 22.4414 24.9028C22.4535 24.9632 22.4595 25.0298 22.4595 25.0963C22.4595 25.1205 22.4595 25.1386 22.4595 25.1628C22.4293 25.7495 21.9515 26.2151 21.3649 26.2635C20.9113 26.3058 20.4577 26.324 20.0042 26.324C19.5506 26.324 19.097 26.3058 18.6434 26.2635C18.0568 26.2151 17.579 25.7495 17.5488 25.1628Z" fill="#E59576"/>
<path d="M19.8894 31.3254C21.2501 31.3254 22.5081 30.8839 23.5241 30.134V28.5676C22.502 29.3176 21.2441 29.7651 19.8773 29.7651C18.5105 29.7651 17.2525 29.3176 16.2305 28.5676V30.1219C17.2586 30.8779 18.5226 31.3254 19.8894 31.3254Z" fill="#CC846A"/>
<path d="M21.363 26.2635C21.9497 26.2151 22.4274 25.7494 22.4577 25.1628C22.4577 25.1446 22.4577 25.1204 22.4577 25.0962C22.4577 25.0297 22.4516 24.9692 22.4395 24.9027C21.6291 25.0297 20.8187 25.0962 20.0023 25.0962C19.1858 25.0962 18.3694 25.0297 17.565 24.9027C17.5529 24.9632 17.5469 25.0297 17.5469 25.0962C17.5469 25.1204 17.5469 25.1386 17.5469 25.1628C17.5771 25.7494 18.0549 26.2151 18.6415 26.2635C19.0951 26.3058 19.5487 26.3239 20.0023 26.3239C20.4559 26.3239 20.9094 26.3058 21.363 26.2635Z" fill="#995C7A"/>
<path d="M12.832 20.6754C12.832 20.9838 13.086 21.2378 13.3945 21.2378C13.5154 21.2378 13.6303 21.1955 13.7211 21.1289V20.2218C13.6303 20.1552 13.5154 20.1129 13.3945 20.1129C13.086 20.1129 12.832 20.3609 12.832 20.6754Z" fill="#333333"/>
<path d="M26.922 20.6754C26.922 20.3669 26.668 20.1129 26.3596 20.1129C26.2386 20.1129 26.1298 20.1492 26.0391 20.2157V21.135C26.1298 21.2015 26.2386 21.2378 26.3596 21.2378C26.668 21.2378 26.922 20.9838 26.922 20.6754Z" fill="#333333"/>
<path d="M21.2316 23.8685C20.5542 23.8685 20.0039 24.4189 20.0039 25.0962C20.8204 25.0962 21.6368 25.0297 22.4411 24.9027C22.3504 24.3221 21.8424 23.8685 21.2316 23.8685Z" fill="#824E63"/>
<path d="M18.776 23.8685C18.1651 23.8685 17.6571 24.3161 17.5664 24.9027C18.3768 25.0297 19.1872 25.0962 20.0037 25.0962C20.0037 24.4189 19.4533 23.8685 18.776 23.8685Z" fill="#824E63"/>
<path d="M26.3596 19.0787C26.2507 19.0787 26.1419 19.0908 26.0391 19.109V20.2097C26.1298 20.1431 26.2386 20.1069 26.3596 20.1069C26.668 20.1069 26.922 20.3609 26.922 20.6693C26.922 20.9777 26.668 21.2317 26.3596 21.2317C26.2386 21.2317 26.1298 21.1955 26.0391 21.1289V22.2296C26.0874 22.2417 26.1358 22.2478 26.1782 22.2538C26.2386 22.2599 26.2991 22.2659 26.3596 22.2659C26.4201 22.2659 26.4806 22.2599 26.541 22.2538C27.3333 22.1631 27.9562 21.4918 27.9562 20.6693C27.9502 19.7924 27.2365 19.0787 26.3596 19.0787Z" fill="#E59576"/>
<path d="M13.3953 20.1128C13.5162 20.1128 13.6311 20.1552 13.7218 20.2217V19.121C13.613 19.0968 13.5041 19.0847 13.3953 19.0847C12.5183 19.0847 11.8047 19.7984 11.8047 20.6753C11.8047 21.4917 12.4216 22.1691 13.2199 22.2598C13.2803 22.2658 13.3408 22.2719 13.4013 22.2719C13.4618 22.2719 13.5223 22.2658 13.5827 22.2598C13.6311 22.2538 13.6855 22.2477 13.7339 22.2356V21.1289C13.6432 21.1954 13.5283 21.2377 13.4073 21.2377C13.0989 21.2377 12.8449 20.9837 12.8449 20.6753C12.8328 20.3608 13.0868 20.1128 13.3953 20.1128Z" fill="#E59576"/>
<path d="M18.457 22.0723C18.457 22.278 18.6264 22.4473 18.832 22.4473C19.0376 22.4473 19.2069 22.278 19.2069 22.0723C19.2069 21.8667 19.0376 21.6974 18.832 21.6974C18.6264 21.6974 18.457 21.8607 18.457 22.0723Z" fill="#35251E"/>
<path d="M20.9296 22.4412C21.1353 22.4412 21.3046 22.2719 21.3046 22.0662C21.3046 21.8606 21.1353 21.6913 20.9296 21.6913C20.724 21.6913 20.5547 21.8606 20.5547 22.0662C20.5547 22.2719 20.724 22.4412 20.9296 22.4412Z" fill="#35251E"/>
<path d="M18.6856 14.2224C18.6856 13.8172 18.3591 13.4906 17.9539 13.4906H15.1719V14.2224C15.1719 14.6276 15.4985 14.9542 15.9037 14.9542H17.9539C18.3591 14.9542 18.6856 14.6215 18.6856 14.2224Z" fill="#35251E"/>
<path d="M21.8255 14.9542H23.8757C24.2809 14.9542 24.6075 14.6276 24.6075 14.2224V13.4906H21.8255C21.4203 13.4906 21.0938 13.8172 21.0938 14.2224C21.0938 14.6276 21.4203 14.9542 21.8255 14.9542Z" fill="#35251E"/>
<path d="M22.8462 17.5002C22.6285 17.5002 22.4531 17.6756 22.4531 17.8933V18.7098C22.4531 18.9275 22.6285 19.1029 22.8462 19.1029C23.064 19.1029 23.2393 18.9275 23.2393 18.7098V17.8873C23.2393 17.6756 23.064 17.5002 22.8462 17.5002Z" fill="#35251E"/>
<path d="M16.9322 17.5002C16.7144 17.5002 16.5391 17.6756 16.5391 17.8933V18.7098C16.5391 18.9275 16.7144 19.1029 16.9322 19.1029C17.1499 19.1029 17.3253 18.9275 17.3253 18.7098V17.8873C17.3253 17.6756 17.1499 17.5002 16.9322 17.5002Z" fill="#35251E"/>
</g>
</svg>
