<svg width="40" height="41" viewBox="0 0 40 41" fill="none" xmlns="http://www.w3.org/2000/svg">
<mask id="mask0_4918_2797" style="mask-type:luminance" maskUnits="userSpaceOnUse" x="0" y="0" width="41" height="41">
<path d="M20.0039 40.5001C8.95825 40.5001 0.00396347 31.5458 0.00396347 20.5001C0.00396347 9.45441 8.95825 0.500122 20.0039 0.500122C31.0496 0.500122 40.0039 9.45441 40.0039 20.5001C40.0039 31.5458 31.0496 40.5001 20.0039 40.5001Z" fill="white"/>
</mask>
<g mask="url(#mask0_4918_2797)">
<path d="M10.9684 11.1743C11.4462 11.3618 11.9663 11.005 11.9663 10.4909V9.02133C11.9663 8.41656 12.6558 8.07184 13.1335 8.4347L14.0951 9.14834C14.5427 9.48097 15.1837 9.21486 15.2563 8.65847L15.4317 7.3582C15.5285 6.63247 16.5203 6.48732 16.8227 7.15258L16.9799 7.4973C17.2521 8.08998 18.1048 8.05974 18.3346 7.44891L18.5947 6.74737C19.0845 5.42291 20.9594 5.42291 21.4492 6.74737L21.7093 7.44891C21.9391 8.05974 22.7918 8.08998 23.064 7.4973L23.2212 7.15258C23.5236 6.48128 24.5154 6.62642 24.6122 7.3582L24.7876 8.65847C24.8602 9.20882 25.5012 9.48097 25.9488 9.14834L26.9104 8.4347C27.3942 8.07789 28.0776 8.42261 28.0776 9.02133V10.5333C28.0776 11.0231 28.5735 11.3679 29.0331 11.1864L29.0694 11.1743C29.7286 10.9203 30.3274 11.64 29.9645 12.2388C28.507 14.6155 26.1604 18.4438 26.1604 18.4438H20.0401H20.0038H13.8895L10.0855 12.2388C9.71655 11.6461 10.3153 10.9264 10.9684 11.1743Z" fill="#121419"/>
<path d="M27.0586 20.0041C27.0586 20.3125 26.8046 20.5665 26.4962 20.5665C26.3752 20.5665 26.2603 20.5242 26.1696 20.4577V19.5505C26.2603 19.484 26.3752 19.4417 26.4962 19.4417C26.8046 19.4477 27.0586 19.6957 27.0586 20.0041Z" fill="#333333"/>
<path d="M12.9647 20.0041C12.9647 19.6957 13.2187 19.4417 13.5271 19.4417C13.6481 19.4417 13.7569 19.4779 13.8477 19.5445V20.4637C13.7569 20.5302 13.6481 20.5665 13.5271 20.5665C13.2187 20.5665 12.9647 20.3186 12.9647 20.0041Z" fill="#333333"/>
<path d="M13.5271 19.4477C13.2187 19.4477 12.9647 19.7017 12.9647 20.0102C12.9647 20.3186 13.2187 20.5726 13.5271 20.5726C13.6481 20.5726 13.7569 20.5363 13.8477 20.4698V21.5705C13.7448 21.5947 13.636 21.6007 13.5271 21.6007C12.6502 21.6007 11.9366 20.8871 11.9366 20.0102C11.9366 19.1333 12.6502 18.4136 13.5271 18.4136C13.636 18.4136 13.7448 18.4257 13.8477 18.4438V19.5445C13.7569 19.484 13.6481 19.4477 13.5271 19.4477Z" fill="#CC8666"/>
<path d="M20.0035 29.7652C18.6367 29.7652 17.3788 29.3176 16.3567 28.5677C14.8327 27.4489 13.8469 25.6406 13.8469 23.6085V21.5704V20.4697V19.5505V18.4498V14.7062C13.8469 12.8012 15.3951 11.2529 17.3002 11.2529H22.7069C24.6119 11.2529 26.1602 12.8012 26.1602 14.7062V18.4498V19.5505V20.4576V21.5583V23.6025C26.1602 25.6406 25.1744 27.4428 23.6503 28.5616C22.6343 29.3176 21.3703 29.7652 20.0035 29.7652ZM16.647 18.7098C16.647 18.9276 16.8224 19.1029 17.0401 19.1029C17.2578 19.1029 17.4332 18.9276 17.4332 18.7098V17.8873C17.4332 17.6696 17.2578 17.4942 17.0401 17.4942C16.8224 17.4942 16.647 17.6696 16.647 17.8873V18.7098ZM18.0682 13.4906H16.018C15.6128 13.4906 15.2863 13.8172 15.2863 14.2224C15.2863 14.6276 15.6128 14.9542 16.018 14.9542H18.0682C18.4734 14.9542 18.8 14.6276 18.8 14.2224C18.794 13.8172 18.4674 13.4906 18.0682 13.4906ZM18.9573 21.6914C18.7516 21.6914 18.5823 21.8607 18.5823 22.0663C18.5823 22.272 18.7516 22.4413 18.9573 22.4413C19.1629 22.4413 19.3322 22.272 19.3322 22.0663C19.3322 21.8607 19.1629 21.6914 18.9573 21.6914ZM20.6809 22.0663C20.6809 22.272 20.8502 22.4413 21.0558 22.4413C21.2615 22.4413 21.4308 22.272 21.4308 22.0663C21.4308 21.8607 21.2615 21.6914 21.0558 21.6914C20.8502 21.6914 20.6809 21.8607 20.6809 22.0663ZM23.983 14.9481C24.3882 14.9481 24.7147 14.6215 24.7147 14.2163C24.7147 13.8111 24.3882 13.4846 23.983 13.4846H21.9328C21.5276 13.4846 21.201 13.8111 21.201 14.2163C21.201 14.6215 21.5276 14.9481 21.9328 14.9481H23.983ZM23.3479 17.8873C23.3479 17.6696 23.1726 17.4942 22.9548 17.4942C22.7371 17.4942 22.5617 17.6696 22.5617 17.8873V18.7098C22.5617 18.9276 22.7371 19.1029 22.9548 19.1029C23.1726 19.1029 23.3479 18.9276 23.3479 18.7098V17.8873ZM23.2935 23.3606V23.2759H22.719H17.2578H16.7256V23.3606C16.7256 23.8807 16.8466 24.3766 17.0643 24.8181C17.6026 25.9006 18.7214 26.6505 20.0096 26.6505C20.5176 26.6505 21.0014 26.5356 21.4308 26.33C22.5315 25.7918 23.2935 24.6608 23.2935 23.3606Z" fill="#CC8666"/>
<path d="M20.1136 24.8121H17.0655C16.8478 24.3706 16.7269 23.8807 16.7269 23.3546V23.2699H17.2591V23.8686C17.2591 24.1468 17.4828 24.3706 17.761 24.3706H22.2243C22.5025 24.3706 22.7262 24.1468 22.7262 23.8686V23.2699H23.3008V23.3546C23.3008 24.6609 22.5388 25.7858 21.4381 26.318V26.1305C21.432 25.4048 20.8393 24.8121 20.1136 24.8121Z" fill="#840636"/>
<path d="M19.9973 31.3255C18.6366 31.3255 17.3787 30.8841 16.3626 30.1341V28.5677C17.3847 29.3177 18.6427 29.7652 20.0094 29.7652C21.3762 29.7652 22.6342 29.3177 23.6562 28.5677V30.122C22.6281 30.878 21.3641 31.3255 19.9973 31.3255Z" fill="#B2745B"/>
<path d="M20.0046 26.6446C18.7103 26.6446 17.5975 25.9007 17.0593 24.8121H20.1074C20.8331 24.8121 21.4258 25.4048 21.4258 26.1306V26.318C21.0024 26.5297 20.5186 26.6446 20.0046 26.6446Z" fill="#F22661"/>
<path d="M26.482 34.4523H34.5195V41.7096H5.49024V34.4523H13.5277H26.482Z" fill="#8EB2A4"/>
<path d="M26.4915 20.5666C26.7999 20.5666 27.0539 20.3126 27.0539 20.0041C27.0539 19.6957 26.7999 19.4417 26.4915 19.4417C26.3705 19.4417 26.2556 19.484 26.1649 19.5506V18.4499C26.2737 18.4257 26.3826 18.4136 26.4915 18.4136C27.3684 18.4136 28.082 19.1272 28.082 20.0041C28.082 20.8811 27.3684 21.5947 26.4915 21.5947C26.3766 21.5947 26.2677 21.5826 26.1649 21.5584V20.4577C26.2556 20.5303 26.3705 20.5666 26.4915 20.5666Z" fill="#CC8666"/>
<path d="M15.0568 32.5532H16.3571H23.6568H24.957V34.4522H15.0568V32.5532Z" fill="#9ECCBA"/>
<path d="M16.3548 30.1342C17.3769 30.8841 18.6288 31.3256 19.9895 31.3256C21.3563 31.3256 22.6264 30.878 23.6484 30.1221V32.5533H16.3548V30.1342Z" fill="#CC8666"/>
<path d="M22.2189 24.3706H17.7557C17.4775 24.3706 17.2537 24.1468 17.2537 23.8686V23.2699H22.7148V23.8686C22.7148 24.1468 22.4971 24.3706 22.2189 24.3706Z" fill="white"/>
<path d="M21.4336 22.0664C21.4336 22.272 21.2643 22.4413 21.0586 22.4413C20.853 22.4413 20.6837 22.272 20.6837 22.0664C20.6837 21.8607 20.853 21.6914 21.0586 21.6914C21.2643 21.6914 21.4336 21.8607 21.4336 22.0664Z" fill="#121419"/>
<path d="M18.961 22.4413C18.7554 22.4413 18.586 22.272 18.586 22.0664C18.586 21.8607 18.7554 21.6914 18.961 21.6914C19.1666 21.6914 19.3359 21.8607 19.3359 22.0664C19.3359 22.272 19.1666 22.4413 18.961 22.4413Z" fill="#121419"/>
<path d="M21.2011 14.2164C21.2011 13.8112 21.5277 13.4846 21.9329 13.4846H23.9831C24.3883 13.4846 24.7148 13.8112 24.7148 14.2164C24.7148 14.6216 24.3883 14.9482 23.9831 14.9482H21.9329C21.5277 14.9482 21.2011 14.6216 21.2011 14.2164Z" fill="#121419"/>
<path d="M18.069 14.9482H16.0188C15.6136 14.9482 15.287 14.6216 15.287 14.2164C15.287 13.8112 15.6136 13.4846 16.0188 13.4846H18.069C18.4742 13.4846 18.8008 13.8112 18.8008 14.2164C18.7947 14.6216 18.4682 14.9482 18.069 14.9482Z" fill="#121419"/>
<path d="M17.0405 17.4943C17.2582 17.4943 17.4336 17.6696 17.4336 17.8874V18.7099C17.4336 18.9276 17.2582 19.103 17.0405 19.103C16.8228 19.103 16.6474 18.9276 16.6474 18.7099V17.8874C16.6474 17.6696 16.8228 17.4943 17.0405 17.4943Z" fill="#121419"/>
<path d="M22.9585 19.103C22.7407 19.103 22.5654 18.9276 22.5654 18.7099V17.8874C22.5654 17.6696 22.7407 17.4943 22.9585 17.4943C23.1762 17.4943 23.3516 17.6696 23.3516 17.8874V18.7099C23.3516 18.9276 23.1762 19.103 22.9585 19.103Z" fill="#121419"/>
<path d="M13.518 21.2741C13.3878 21.2741 13.2822 21.1685 13.2822 21.0382C13.2822 20.908 13.3878 20.8024 13.518 20.8024C13.6483 20.8024 13.7539 20.908 13.7539 21.0382C13.7539 21.1685 13.6483 21.2741 13.518 21.2741Z" fill="#FFCB27"/>
</g>
</svg>
